<svg width="20" height="20" viewBox="0 0 20 20" fill="none" xmlns="http://www.w3.org/2000/svg">
<path fill-rule="evenodd" clip-rule="evenodd" d="M8.13823 4.35652C8.39858 4.60963 8.39858 5.02002 8.13823 5.27314L3.2763 10L8.13823 14.7269C8.39858 14.98 8.39858 15.3904 8.13823 15.6435C7.87788 15.8966 7.45577 15.8966 7.19542 15.6435L1.86209 10.4583C1.60174 10.2052 1.60174 9.79482 1.86209 9.5417L7.19542 4.35652C7.45577 4.1034 7.87788 4.1034 8.13823 4.35652Z" fill="#737373"/>
<path fill-rule="evenodd" clip-rule="evenodd" d="M11.8621 15.6435C11.6017 15.3904 11.6017 14.98 11.8621 14.7269L16.724 10L11.8621 5.27313C11.6017 5.02002 11.6017 4.60963 11.8621 4.35651C12.1224 4.1034 12.5446 4.1034 12.8049 4.35651L18.1382 9.5417C18.3986 9.79482 18.3986 10.2052 18.1382 10.4583L12.8049 15.6435C12.5446 15.8966 12.1224 15.8966 11.8621 15.6435Z" fill="#737373"/>
<path fill-rule="evenodd" clip-rule="evenodd" d="M7.0502 4.20714C7.39141 3.87541 7.94225 3.87541 8.28346 4.20714C8.62795 4.54207 8.62795 5.08758 8.28346 5.42251L3.57517 10L8.28346 14.5775C8.62795 14.9124 8.62795 15.458 8.28346 15.7929C7.94225 16.1246 7.39141 16.1246 7.0502 15.7929L1.71687 10.6077C1.37237 10.2728 1.37237 9.72725 1.71687 9.39233L7.0502 4.20714ZM7.99301 4.50589C7.81352 4.33138 7.52014 4.33138 7.34065 4.50589L2.00732 9.69107C1.83111 9.86238 1.83111 10.1376 2.00732 10.3089L7.34065 15.4941C7.52014 15.6686 7.81352 15.6686 7.99301 15.4941C8.16921 15.3228 8.16921 15.0476 7.99301 14.8763L3.13108 10.1494C3.09073 10.1102 3.06797 10.0563 3.06797 10C3.06797 9.94374 3.09073 9.88986 3.13108 9.85064L7.99301 5.12376C8.16921 4.95245 8.16921 4.6772 7.99301 4.50589ZM11.7169 4.20714C12.0581 3.87541 12.6089 3.87541 12.9501 4.20714L18.2835 9.39233C18.628 9.72725 18.628 10.2728 18.2835 10.6077L12.9501 15.7929C12.6089 16.1246 12.0581 16.1246 11.7169 15.7929C11.3724 15.458 11.3724 14.9124 11.7169 14.5775L16.4252 10L11.7169 5.42251C11.3724 5.08758 11.3724 4.54207 11.7169 4.20714ZM12.6597 4.50589C12.4802 4.33138 12.1868 4.33138 12.0073 4.50589C11.8311 4.6772 11.8311 4.95245 12.0073 5.12376L16.8692 9.85064C16.9096 9.88986 16.9324 9.94374 16.9324 10C16.9324 10.0563 16.9096 10.1102 16.8692 10.1494L12.0073 14.8763C11.8311 15.0476 11.8311 15.3228 12.0073 15.4941C12.1868 15.6686 12.4802 15.6686 12.6597 15.4941L17.993 10.3089C18.1692 10.1376 18.1692 9.86238 17.993 9.69108L12.6597 4.50589Z" fill="#737373"/>
</svg>
