<svg width="48" height="48" viewBox="0 0 48 48" fill="none" xmlns="http://www.w3.org/2000/svg">
<path d="M27.5359 8.4C26.8399 7.09 25.4839 6.276 23.9999 6.276C22.5159 6.276 21.1599 7.09 20.4639 8.402L5.7879 36.128C5.46223 36.7369 5.30092 37.4201 5.31985 38.1103C5.33879 38.8006 5.53734 39.4739 5.8959 40.064C6.24929 40.6568 6.75118 41.1471 7.352 41.4866C7.95281 41.8261 8.63179 42.0031 9.3219 42H38.6779C40.0939 42 41.3759 41.276 42.1059 40.064C42.4639 39.4737 42.6621 38.8004 42.681 38.1103C42.7 37.4202 42.539 36.737 42.2139 36.128L27.5359 8.4ZM9.3219 38L23.9999 10.274L38.6879 38H9.3219Z" fill="#EF4444"/>
<path d="M26.0195 34C26.0195 35.1046 25.1241 36 24.0195 36L23.9995 36C22.895 36 21.9995 35.1046 21.9995 34C21.9995 32.8954 22.895 32 23.9995 32L24.0195 32C25.1241 32 26.0195 32.8954 26.0195 34Z" fill="#EF4444"/>
<path d="M24.0195 30C22.915 30 22.0195 29.1046 22.0195 28L22.0195 20C22.0195 18.8954 22.915 18 24.0195 18C25.1241 18 26.0195 18.8954 26.0195 20L26.0195 28C26.0195 29.1046 25.1241 30 24.0195 30Z" fill="#EF4444"/>
</svg>
