<svg width="24" height="24" viewBox="0 0 24 24" fill="none" xmlns="http://www.w3.org/2000/svg">
<path d="M2 4.27L3.28 3L20 19.72L18.73 21L15.65 17.92C14.5 18.3 13.28 18.5 12 18.5C7 18.5 2.73 15.39 1 11C1.69 9.24 2.79 7.69 4.19 6.46L2 4.27ZM12 8C12.7956 8 13.5587 8.31607 14.1213 8.87868C14.6839 9.44129 15 10.2044 15 11C15.0005 11.3406 14.943 11.6787 14.83 12L11 8.17C11.3213 8.05698 11.6594 7.99949 12 8ZM12 3.5C17 3.5 21.27 6.61 23 11C22.1839 13.0732 20.7969 14.8727 19 16.19L17.58 14.76C18.9629 13.8034 20.0782 12.5091 20.82 11C20.0116 9.34994 18.7564 7.95977 17.1973 6.9875C15.6381 6.01524 13.8375 5.49988 12 5.5C10.91 5.5 9.84 5.68 8.84 6L7.3 4.47C8.74 3.85 10.33 3.5 12 3.5ZM3.18 11C3.98844 12.6501 5.24357 14.0402 6.80273 15.0125C8.36189 15.9848 10.1625 16.5001 12 16.5C12.69 16.5 13.37 16.43 14 16.29L11.72 14C11.0242 13.9254 10.3748 13.6149 9.87997 13.12C9.38512 12.6252 9.07458 11.9758 9 11.28L5.6 7.87C4.61 8.72 3.78 9.78 3.18 11Z" fill="#737373"/>
</svg>
