<svg width="20" height="20" viewBox="0 0 20 20" fill="none" xmlns="http://www.w3.org/2000/svg">
<path fill-rule="evenodd" clip-rule="evenodd" d="M9.99992 2.50001C5.85778 2.50001 2.49992 5.85787 2.49992 10C2.49992 14.1421 5.85778 17.5 9.99992 17.5C14.1421 17.5 17.4999 14.1421 17.4999 10C17.4999 5.85787 14.1421 2.50001 9.99992 2.50001ZM0.833252 10C0.833252 4.9374 4.93731 0.833344 9.99992 0.833344C15.0625 0.833344 19.1666 4.9374 19.1666 10C19.1666 15.0626 15.0625 19.1667 9.99992 19.1667C4.93731 19.1667 0.833252 15.0626 0.833252 10ZM9.16658 5.83334C9.16658 5.37311 9.53968 5.00001 9.99992 5.00001H10.0083C10.4685 5.00001 10.8416 5.37311 10.8416 5.83334C10.8416 6.29358 10.4685 6.66668 10.0083 6.66668H9.99992C9.53968 6.66668 9.16658 6.29358 9.16658 5.83334ZM9.99992 8.33334C10.4602 8.33334 10.8333 8.70644 10.8333 9.16668V14.1667C10.8333 14.6269 10.4602 15 9.99992 15C9.53968 15 9.16658 14.6269 9.16658 14.1667V9.16668C9.16658 8.70644 9.53968 8.33334 9.99992 8.33334Z" fill="#737373"/>
</svg>
