<svg xmlns="http://www.w3.org/2000/svg" xmlns:xlink="http://www.w3.org/1999/xlink" version="1.1" width="46.124" height="46.125" style="" xml:space="preserve"><rect id="backgroundrect" width="100%" height="100%" x="0" y="0" fill="none" stroke="none"/>
<g class="currentLayer" style=""><title>Layer 1</title><g id="svg_1" class="">
	<g id="svg_2">
		<g id="svg_3">
			<path d="M41.308143956204965,-5.234359812779998 H4.815858115623239 C-0.9547256460071099,-5.234359812779998 -5.631660609346582,-0.608438150785019 -5.631660609346582,5.097685431218361 v35.92963197258015 c0,5.70735388031774 4.676934963339472,10.332045243998357 10.44751872496982,10.332045243998357 h36.49228584058173 c5.769339565045261,0 10.44751872496982,-4.625921661994979 10.44751872496982,-10.332045243998357 V5.097685431218361 C51.756906877759874,-0.608438150785019 47.07872771783532,-5.234359812779998 41.308143956204965,-5.234359812779998 zM41.65651900002915,18.23727142858708 L21.917340177634692,37.75595418591429 c-0.8373443017630936,0.8292210638788877 -1.9732957839469023,1.2942738267071054 -3.1577709329490773,1.2942738267071054 s-2.320426631185985,-0.46628306114257934 -3.1577709329490773,-1.2942738267071054 l-9.783117748533726,-9.673835645815563 c-1.7431194157059335,-1.7248782367332378 -1.7431194157059335,-4.520116006959987 0.0012441965850863216,-6.246224542007581 c0.8373443017630936,-0.8279907655645277 1.9720515873618174,-1.293043528392745 3.156526736363991,-1.293043528392745 c1.1844751490021757,0 2.319182434600898,0.4650527628282192 3.156526736363991,1.293043528392745 l5.830305197714489,5.766408199407037 c0.21151341946467478,0.2091507134412627 0.4989228306196144,0.3272593516198585 0.7975300110403325,0.3272593516198585 c0.29860718042071677,0 0.5860165915756562,-0.11810863817859545 0.7975300110403325,-0.3272593516198585 l15.783877878405042,-15.608794714289967 c0.8385884983481807,-0.8279907655645277 1.9732957839469023,-1.2942738267071054 3.159015129534164,-1.2942738267071054 c1.1832309524170894,0.00123029831436037 2.319182434600898,0.46628306114257934 3.156526736363991,1.2942738267071054 C43.40088261232017,13.718385719941452 43.40088261232017,16.513623490168204 41.65651900002915,18.23727142858708 z" id="svg_4"/>
		</g>
	</g>
</g><g id="svg_5">
</g><g id="svg_6">
</g><g id="svg_7">
</g><g id="svg_8">
</g><g id="svg_9">
</g><g id="svg_10">
</g><g id="svg_11">
</g><g id="svg_12">
</g><g id="svg_13">
</g><g id="svg_14">
</g><g id="svg_15">
</g><g id="svg_16">
</g><g id="svg_17">
</g><g id="svg_18">
</g><g id="svg_19">
</g></g></svg>